<?xml version="1.0" encoding="UTF-8"?>
<svg id="Layer_1" data-name="Layer 1" xmlns="http://www.w3.org/2000/svg" viewBox="0 0 1920 1080">
  <defs>
    <style>
      .cls-1 {
        fill: #eb1000;
      }
    </style>
  </defs>
  <path class="cls-1" d="M1091.13,815.89c19.49,26.64-9.66,87.43-37.76,96.67-70.97,23.37-117.47,47.78-195.13,23.61-116.94-36.41-183.69-170.37-120.94-281.56,32.15-56.92,101.14-101.8,166.38-107.86,29.39-2.74,54.65-.15,82.47,9.06,17.44,5.78,32.33,16.89,51.34,15.78,12.08-.69,17.58-5.58,30.73.22,41.64,18.32,60.11,126.95,7.52,147-48.76,18.58-63.13-37.3-88.1-64.6-43.53-47.58-124.62-39.21-130.78,34.6-8.95,107.12,90.01,202.5,191.24,134.94,12.95-8.64,28.08-28.28,43.02-7.86Z"/>
  <path class="cls-1" d="M989.18,739.92l-60.59,34.35c-1.04-.13-2.46-.38-3.19-1.13-1.1-1.12-1.13-3.57-1.25-5.1-1.43-16.64-1.51-49.16,0-65.73.31-3.48.77-7.16,5.19-6.15l63.36,36.72c2,2.85-1.45,5.53-3.51,7.04Z"/>
  <path class="cls-1" d="M1696.68,684.93c-7.05,2.92-26.2,15.58-31.1,15.92-10.08.67-1.42-19.55-15.59-21.8-14.98-2.38-47.99,5.59-63.53,9.72-22.42,5.95-85.74,24.03-70.77,57.39,6.11,13.58,25.58,10.33,30.08,16.02,1.33,1.67,3.36,14.42,3.59,17.5,2.42,32.89,2.72,90.71-.27,123.3-.58,6.41-3.11,19.55-6.28,24.97-7.39,12.69-28.03,13.34-27.03,30.94,1.33,23.44,40.49,36.99,59.75,41.5,27.63,6.47,80.3,11.09,104.61-5.42,8.25-5.59,11.75-14.25,9.44-24.27-2.34-10.17-20.25-15.25-24.99-25-2.78-5.69-5.05-28.09.27-31.66,4.38-2.92,33.45,9.16,41.64,10.06,58.78,6.59,107.44-40.53,120.47-94.82,19.81-82.61-35.3-183.79-130.3-144.37ZM1673.67,860.07c-11.97-1.66-15.39-8.09-16.53-19.41-1.8-17.92.06-55.21,3.52-73.02,1.77-9.16,4.28-19.02,14.8-21.16,22.66-4.58,36.1,22.27,37.91,41.08,2.84,29.38,2.36,78.33-39.69,72.5Z"/>
  <path class="cls-1" d="M1497.19,908.11c-20.53,22.27-108.93,18.58-136.58,10.33-13.41-4-27.61-12.03-23.08-28.58,2.92-10.64,18.33-16.08,23.36-25.08,7.34-13.09,6.98-74.32,5.66-91.35-2.05-26-10.08-19.56-24.3-31.95-12.11-10.53-4.83-23.94,5.63-31.91,18.84-14.39,85.99-29.97,109.99-30.7,15.2-.47,17.02,7.66,18.06,21.13,3.55,45.77-3.61,96.43-.05,142.24.52,6.53,2.19,17.05,5.59,22.53,5.22,8.39,19.97,14.14,21.91,23.52,1.28,6.14-2.06,15.36-6.19,19.83Z"/>
  <path class="cls-1" d="M1472.74,620.36c-3.63,38.16-86.53,49.3-113.9,37.33-15.31-6.69-23-23-15.42-38.52,9.75-19.92,53.56-31.52,74.28-33.53,23.52-2.31,57.89,4.63,55.03,34.72Z"/>
  <path class="cls-1" d="M1278.26,924.34c-24.5,1.81-93.55,2.69-111.24-14.67-7.52-7.38-10.28-20.19-1.34-27.59,8.56-7.09,16.23-4.25,20.66-18.41,6.63-21.11,4.5-56.53,5.08-79.3.67-26.55,4.73-83.47-5.42-106.96-8.78-20.34-49.06-26.22-25.72-55.44,17.05-21.34,95.71-36.88,122.61-36.89,15.48-.02,20.83,12.05,21.19,25.86.64,25.14-5.5,56.86-6.41,82.8-1.91,54.56,1.53,109.52.08,164.12.89,4.69,1.42,10.33,4.64,14.11,7.33,8.67,22.3,6.36,23.41,22.03,1.58,22.17-30.69,29.09-47.53,30.34Z"/>
  <path class="cls-1" d="M1536.1,90.01c-135.82-59.3-279.9,55.72-254.99,201.01,25.03,146.1,203.62,202.32,310.23,99.54,94.75-91.33,64.14-248.42-55.24-300.54ZM1541.66,109.51c48.05,24.27,80.28,72.55,88.63,125.44l-88.63,49.36V109.51ZM1526.24,101.79v98.97l-152.94-85.47c45.06-28.38,103.5-33.17,152.94-13.5ZM1357.83,125.55l86.14,47.61-150.38,89.32c-1.98-52.91,23.33-104.16,64.24-136.93ZM1382.28,407.71c-38.8-20.81-69.16-57.94-81.63-100.25-1.55-5.3-5.91-20.59-5.67-25.17.09-1.81,1.06-2.81,2.53-3.7l84.77-49.53v178.66ZM1397.91,218.97l63.42-36.14,62.85,34.78,2.14,4.3-.28,72.49-63.42,34.42-62.85-35.64-2.14-4.28.28-69.92ZM1397.7,415.43v-105.41l156.82,90.61c-46.52,30.33-105.27,35.33-156.82,14.8ZM1569.87,389.1l-91.19-52.06,152.94-83.57c1.83,51.78-21.44,103.35-61.75,135.63Z"/>
  <polygon class="cls-1" points="1526.32 221.91 1526.04 294.4 1462.61 328.82 1399.77 293.18 1397.62 288.9 1397.91 218.97 1461.33 182.83 1524.18 217.61 1526.32 221.91"/>
  <path class="cls-1" d="M1117.18,314.8c33.52-4.02,75.08,3.08,109.52.14,45.25-3.86,28.64-61.1,11.36-86.49-26.77-39.38-71.33-52.16-117.22-47.5-90.46,9.19-144.9,111.79-96.27,190.68,40.72,66.1,143.16,72.38,201.15,26.7,14.47-11.39,29.16-37.45,10.33-52.24-12.09-9.48-26.94,5.03-38.81,9.69-25.91,10.16-55.97,9.45-76.05-12.02-5.77-6.17-16.88-27.42-4-28.97ZM1122.69,228.11c26.17-19.02,52.6,19.78,38.63,36.31-1.5,1.78-5.64,3.36-8.06,3.64-6.83.83-32.81,1.56-38.33-.86-14.66-6.44-2.27-31.8,7.77-39.1Z"/>
  <path class="cls-1" d="M990.78,378.85c-3.22-6.48-10.08-8.3-14.38-12.97-5.95-6.45-7.75-14.97-8.44-23.59-5.88-74.83,7.41-160.58.05-234.43-1.98-19.92-11.5-18.97-28.88-17.97-22.69,1.3-96.27,14.34-107.36,34.83-14.22,26.24,21.34,24.16,28.52,37.74,3.95,7.5,4.14,32.78-6.44,31.34-4.63-.63-15.77-7.13-22.14-9.02-90.89-27.02-167.62,65.55-144.18,151.99,16.33,60.22,79.08,111.49,142.47,83.07,8.81-3.95,25.05-17.99,32.56-17.61,11.77.61,1.47,22.61,17.27,25.06,21.61,3.36,78.33-5.27,97.47-16.41,12.19-7.09,20.58-17.67,13.47-32.03ZM856.29,352.37c-11.97,28.45-40.85,20.06-51.06-5.16-10.17-25.13-7.55-88.91,13.34-108.35,11.03-10.3,28.28-9.38,36.7,3.61,12.44,19.24,9.95,88.68,1.02,109.9Z"/>
  <path class="cls-1" d="M593.03,160.98c-25.81,6.7-87.85,12.8-86.05-28.16,1.17-26.97,49.81-40.27,71.64-42.5,18.52-1.89,49.94-1.52,58.46,18.77,12.11,28.89-21.16,45.95-44.05,51.89Z"/>
  <path class="cls-1" d="M632.16,425.12c-24.42,4.61-100.69,5.5-120.3-9.55-8.44-6.47-10.97-19.05-4.78-28.03,7.42-10.77,17.69-10.06,22.39-26.05,5.98-20.28,5.44-69.5,2.62-91.16-3.03-23.17-27.27-18.94-29.63-36.05-1.2-8.64,2.59-13.88,8.78-19.14,19.88-16.86,86.3-31.11,112.74-32.69,9.72-.58,15.89,2.92,17.33,13.03,2.41,46.67-2.72,95.74.08,142.12.55,9.22,2.22,24.19,7.17,31.89,6.23,9.73,19.92,11.11,21.08,24.3,1.8,20.31-21.58,28.33-37.49,31.33Z"/>
  <path class="cls-1" d="M477.04,132.5c-21.28,7.44-23.45-1.77-37.81,21.56-46.21,75.07-76.33,170.96-122.52,246.24-7.44,12.14-16.88,25.63-32.22,27.16-34.89,3.5-41.47-18.14-54.27-44.33-33.63-68.89-60.96-149.01-97.3-215.21-3.55-6.44-8.88-15.27-15.03-19.34-9.77-6.48-23.77-3-28.38-16.94-7.45-22.55,19.36-34.6,36.64-39.08,29.88-7.75,127.72-11.45,151.13,9.13,8.52,7.47,8.22,19.95,1.12,28.28-8.45,9.91-19.36,7.55-15.95,25.61,2.28,12.09,29.2,71.05,36.49,82.27,11.45,17.59,23.95,5.36,31.83-7.86,8.13-13.66,32.6-63.33,35.3-77.19,4.52-23.05-19.47-18.39-22.74-32.78-3.88-17.08,14.39-25.86,27.78-29.38,22.58-5.91,88.6-7.34,108.66,3.88,16.83,9.39,15.92,31.45-2.73,37.99Z"/>
</svg>